<?xml version="1.0" encoding="UTF-8" standalone="no"?>
<svg
   xmlns:dc="http://purl.org/dc/elements/1.1/"
   xmlns:cc="http://creativecommons.org/ns#"
   xmlns:rdf="http://www.w3.org/1999/02/22-rdf-syntax-ns#"
   xmlns:svg="http://www.w3.org/2000/svg"
   xmlns="http://www.w3.org/2000/svg"
   xmlns:sodipodi="http://sodipodi.sourceforge.net/DTD/sodipodi-0.dtd"
   xmlns:inkscape="http://www.inkscape.org/namespaces/inkscape"
   version="1.1"
   width="341.48764"
   height="241.93974"
   id="svg3590"
   sodipodi:docname="org-wur.svg"
   inkscape:version="1.0.2 (e86c870879, 2021-01-15)">
  <metadata
     id="metadata15">
    <rdf:RDF>
      <cc:Work
         rdf:about="">
        <dc:format>image/svg+xml</dc:format>
        <dc:type
           rdf:resource="http://purl.org/dc/dcmitype/StillImage" />
      </cc:Work>
    </rdf:RDF>
  </metadata>
  <sodipodi:namedview
     pagecolor="#ffffff"
     bordercolor="#666666"
     borderopacity="1"
     objecttolerance="10"
     gridtolerance="10"
     guidetolerance="10"
     inkscape:pageopacity="0"
     inkscape:pageshadow="2"
     inkscape:window-width="2560"
     inkscape:window-height="1385"
     id="namedview13"
     showgrid="false"
     inkscape:zoom="3.0214135"
     inkscape:cx="171.07479"
     inkscape:cy="120.96987"
     inkscape:window-x="0"
     inkscape:window-y="0"
     inkscape:window-maximized="1"
     inkscape:current-layer="svg3590" />
  <defs
     id="defs3592" />
  <path
     style="fill:#005172;fill-opacity:1;stroke:#c8b7b7;stroke-width:0.330971"
     d="m 296.03857,241.23363 c -2.00237,-0.17325 -4.01302,-0.4464 -4.4681,-0.607 -0.82349,-0.2906 -0.8227,-0.29223 0.16548,-0.34138 0.5461,-0.0272 1.28536,-0.16373 1.64279,-0.30348 0.588,-0.2299 0.56437,-0.27555 -0.24823,-0.4795 -0.49395,-0.12398 -1.28399,-0.12856 -1.75563,-0.0102 -1.15996,0.29114 -7.74772,-0.89696 -7.74772,-1.39729 0,-0.75827 -4.29674,-1.31074 -13.84269,-1.77987 -5.73382,-0.28179 -7.28598,-0.46204 -8.27427,-0.96088 -0.74942,-0.37827 -1.91541,-0.61269 -3.03683,-0.61054 -1.00118,0.002 -4.31993,-0.10755 -7.37498,-0.24326 -4.44518,-0.19747 -5.48469,-0.33106 -5.20435,-0.66884 0.53275,-0.64193 -0.33623,-0.83565 -2.74109,-0.61108 -1.67283,0.15621 -2.19772,0.0877 -2.62846,-0.34302 -0.43249,-0.4325 -1.2618,-0.53821 -4.22206,-0.53821 -2.37162,0 -3.61099,-0.1179 -3.4793,-0.33097 0.11456,-0.18537 1.83395,-0.34549 3.90844,-0.36396 2.03714,-0.0181 4.07623,-0.14406 4.53132,-0.27981 1.27962,-0.38171 -3.25609,-0.81092 -5.93667,-0.56178 -1.21346,0.11278 -5.62415,-0.0152 -9.80154,-0.28447 -4.17738,-0.26924 -7.74418,-0.49322 -7.92621,-0.49774 -0.90209,-0.0224 0.81748,-0.65057 1.79276,-0.65494 0.62194,-0.003 1.02023,-0.11565 0.88508,-0.2508 -0.13515,-0.13515 -5.41,-0.34594 -11.72188,-0.46843 -6.48531,-0.12585 -11.836,-0.3697 -12.30359,-0.56072 -0.80351,-0.32825 -0.8059,-0.33862 -0.0827,-0.35899 0.40957,-0.0115 0.74468,-0.16992 0.74468,-0.35195 0,-0.21059 -3.03968,-0.34918 -8.35701,-0.38102 l -8.35702,-0.05 5.46102,-0.26807 c 3.00356,-0.14745 9.44508,-0.36521 14.31449,-0.48394 4.86941,-0.11872 8.85348,-0.34791 8.85348,-0.50931 0,-0.1614 -0.88393,-0.29345 -1.96428,-0.29345 -1.08036,0 -2.33491,-0.14091 -2.78791,-0.31314 -1.15199,-0.43799 -3.57213,-0.45543 -24.20777,-0.17446 -17.27711,0.23525 -30.61481,0.0276 -30.61481,-0.47668 0,-0.12682 3.38832,-0.26574 7.52959,-0.30872 4.14127,-0.043 9.3913,-0.21519 11.66672,-0.38269 2.27543,-0.1675 6.29673,-0.4613 8.93622,-0.65289 4.40542,-0.31977 24.66134,-0.79091 26.97413,-0.6274 3.18251,0.22499 46.1772,-0.60898 52.12792,-1.01114 2.93732,-0.1985 3.34713,-0.29162 2.64777,-0.60161 -0.62661,-0.27774 2.02425,-0.37489 10.92204,-0.40029 6.4622,-0.0184 12.33878,-0.14267 13.05905,-0.27606 l 1.30958,-0.24252 -2.13701,-1.28973 c -2.08907,-1.26079 -2.26325,-1.30309 -7.76352,-1.88521 -7.42699,-0.78604 -17.59635,-1.21728 -37.85669,-1.60535 -9.171,-0.17566 -16.75437,-0.39921 -16.85193,-0.49677 -0.0976,-0.0976 4.27831,-0.18266 9.72416,-0.18911 8.75223,-0.0104 9.8055,-0.0666 9.07412,-0.48473 -0.75349,-0.43073 -0.45774,-0.47818 3.30971,-0.53104 l 4.13713,-0.058 -3.2667,-0.26923 c -1.79669,-0.14808 -3.34811,-0.35064 -3.44761,-0.45015 -0.0995,-0.0995 4.49819,-0.19195 10.21709,-0.20544 5.7189,-0.0135 11.06822,-0.12862 11.88737,-0.25583 l 1.48937,-0.23131 -1.48937,-0.40975 c -0.81915,-0.22537 -2.08511,-0.54209 -2.81325,-0.70383 -1.24506,-0.27657 -1.26477,-0.29869 -0.33097,-0.37155 1.96734,-0.15349 -2.23769,-0.59235 -5.95966,-0.62197 -2.00358,-0.016 -4.16316,-0.1943 -4.79908,-0.39634 -2.38727,-0.75847 -4.60066,-1.04297 -9.18226,-1.18022 -2.65398,-0.0795 -4.71633,-0.27859 -4.71633,-0.45526 0,-0.18086 1.92943,-0.33057 4.55085,-0.35313 6.34482,-0.0546 7.61175,-0.445 2.39953,-0.73943 -18.41822,-1.04038 -63.1772,-1.78326 -76.78525,-1.27442 -5.55204,0.20761 -10.31802,0.39572 -10.59107,0.41803 -0.27305,0.0223 -2.2916,-0.0372 -4.48568,-0.1322 -3.62658,-0.15708 -5.35177,0.0518 -4.5452,0.55027 0.16883,0.10435 7.222,0.25946 15.67371,0.34471 8.45171,0.0852 15.65493,0.26839 16.00717,0.40701 0.53377,0.21006 0.42352,0.31495 -0.66194,0.62976 -1.13218,0.32837 -0.41574,0.4131 5.48253,0.64844 3.73169,0.14889 10.50832,0.2501 15.05917,0.22491 6.29835,-0.0349 8.12428,0.0438 7.64613,0.3294 -0.38145,0.22785 -2.84865,0.41663 -6.28211,0.48068 -3.10968,0.058 -6.21532,0.2003 -6.90144,0.31622 -0.76379,0.12904 -1.24748,0.0801 -1.24748,-0.1262 0,-0.22265 -0.36416,-0.23252 -1.07347,-0.0291 -0.59041,0.16932 -1.99652,0.30786 -3.12469,0.30786 -1.12817,0 -2.13152,0.12993 -2.22967,0.28874 -0.32651,0.5283 2.21512,0.68775 5.53399,0.34717 2.24598,-0.23048 4.44102,-0.2276 6.96817,0.009 2.02912,0.19008 7.1521,0.34611 11.38439,0.34673 4.23229,6.7e-4 7.69507,0.12676 7.69507,0.28029 0,0.44953 -9.33657,0.71147 -25.40202,0.71266 -13.61951,9.9e-4 -16.93655,0.18828 -13.94215,0.78715 0.56886,0.11378 5.23058,0.20686 10.35939,0.20686 5.81273,0 9.45052,0.12542 9.65807,0.33297 0.2073,0.2073 0.88811,0.23113 1.8038,0.0632 1.84668,-0.33874 10.24155,-0.0888 10.24155,0.30494 0,0.16051 -2.19682,0.29286 -4.88182,0.2941 -5.72145,0.003 -20.37524,0.51639 -28.33394,0.99333 -4.53908,0.27202 -5.74273,0.44919 -6.45393,0.95 -0.76283,0.53717 -1.82328,0.64435 -8.32109,0.84103 -4.09577,0.12398 -9.82984,0.36773 -12.74238,0.54168 -7.23415,0.43205 -26.69534,1.98441 -27.29583,2.17731 -1.08271,0.34781 0.52965,0.77287 2.96946,0.78283 1.72639,0.007 2.33111,0.10784 1.98583,0.33098 -0.39388,0.25454 -0.3255,0.32292 0.33097,0.33097 0.45509,0.006 0.99948,0.11955 1.20976,0.25329 0.21028,0.13374 -3.28974,0.24357 -7.77782,0.24407 -6.02552,6.7e-4 -9.37225,0.16042 -12.79374,0.61067 -2.54847,0.33536 -6.271895,0.64746 -8.27427,0.69354 -3.449587,0.0794 -3.85783,0.16662 -7.777816,1.66182 -3.487388,1.33019 -4.656933,1.61781 -7.446846,1.83136 -1.82034,0.13934 -4.028935,0.5124 -4.907988,0.82903 -1.18048,0.4252 -1.695259,0.47871 -1.969276,0.20469 -0.274018,-0.27402 -0.270424,-0.371 0.01377,-0.371 0.211613,0 1.223378,-0.31377 2.248371,-0.69727 2.083251,-0.77944 2.062095,-1.52519 -0.02317,-0.81668 -0.725541,0.24652 -2.258757,0.55471 -3.407147,0.68486 -1.148389,0.13016 -2.265403,0.42658 -2.482252,0.65872 -0.261665,0.28011 -0.640263,0.32854 -1.125681,0.14399 -0.492055,-0.18708 -1.344758,-0.0671 -2.605612,0.36673 -1.030809,0.35465 -2.213596,0.55964 -2.628412,0.45553 -0.414816,-0.10412 -1.163588,0.0252 -1.663937,0.28735 -0.710733,0.37239 -1.121902,0.39657 -1.879742,0.11052 -0.813679,-0.30714 -1.038269,-0.27281 -1.393477,0.21297 -0.232901,0.31851 -0.853849,0.58204 -1.379881,0.58562 -0.526035,0.004 -2.147922,0.21962 -3.604194,0.48009 -1.456272,0.26047 -3.218374,0.38551 -3.915786,0.27786 -1.905215,-0.29407 -0.799762,-0.75338 1.827684,-0.75939 1.217986,-0.003 2.312663,-0.16386 2.43261,-0.35795 0.149059,-0.24118 -0.656623,-0.32966 -2.545491,-0.27954 -2.280181,0.0605 -2.781258,-0.0171 -2.864649,-0.44369 -0.05559,-0.28437 0.05612,-0.61417 0.248228,-0.73291 0.192112,-0.11873 0.349297,-0.43049 0.349297,-0.6928 0,-0.5966 -1.870665,-0.65691 -2.06742,-0.0666 -0.08421,0.25263 -0.594987,0.37078 -1.329394,0.30751 -0.655952,-0.0565 -1.485557,0.054 -1.843565,0.24561 -0.50906,0.27245 -0.694817,0.234 -0.85229,-0.17636 -0.110746,-0.28861 -0.40536,-0.44645 -0.654693,-0.35078 -0.456058,0.175 -1.195957,-0.34061 -1.195957,-0.83341 0,-0.14563 0.512489,-0.26478 1.138864,-0.26478 0.626376,0 1.244338,-0.17066 1.373252,-0.37924 0.165879,-0.2684 -0.03111,-0.3126 -0.674069,-0.15123 -0.499647,0.1254 -1.080375,0.0888 -1.290505,-0.0813 -0.21013,-0.17014 -1.251213,-0.48764 -2.313513,-0.70555 -1.093575,-0.22432 -2.166424,-0.67062 -2.473095,-1.02878 -0.644579,-0.75281 -1.718411,-0.83788 -1.718411,-0.13613 0,0.57304 -0.520474,0.66214 -0.840752,0.14392 -0.145435,-0.23531 -0.39973,-0.18795 -0.764824,0.14245 -0.300819,0.27224 -0.958921,0.65162 -1.462446,0.84305 -0.770303,0.29287 -1.025633,0.23794 -1.609924,-0.34635 -0.569227,-0.56923 -0.982932,-0.6667 -2.29469,-0.54066 -1.06385,0.10222 -1.651331,0.0207 -1.752606,-0.24322 -0.08379,-0.21835 -0.949791,-0.4793 -1.924456,-0.57989 -0.974665,-0.10059 -2.48337,-0.56107 -3.352678,-1.02329 -1.542534,-0.82017 -1.562337,-0.85015 -0.823106,-1.24577 0.528898,-0.28306 0.620402,-0.45106 0.303252,-0.55678 -0.709545,-0.23651 -1.584413,-1.22888 -1.446949,-1.64127 0.06835,-0.20507 -0.113841,-0.73627 -0.404882,-1.18046 l -0.529164,-0.8076 2.576879,-0.68898 2.576879,-0.68897 -1.737803,0.0698 c -1.888847,0.0758 -2.119451,-0.12154 -1.031941,-0.88326 0.387999,-0.27177 0.625802,-0.70169 0.528451,-0.95538 -0.09735,-0.25369 0.218179,-1.19234 0.701176,-2.0859 0.812112,-1.50242 0.993461,-1.6411 2.410683,-1.84354 0.84288,-0.1204 2.620961,-0.81995 3.951292,-1.55456 2.374858,-1.3114 2.403384,-1.34268 1.570838,-1.72201 -0.663531,-0.30232 -1.019007,-0.29102 -1.634495,0.052 -0.553907,0.3087 -2.274916,0.44129 -5.818614,0.44828 l -5.032063,0.01 -0.19905,-0.79308 c -0.149468,-0.59553 -0.293415,-0.69871 -0.577893,-0.41423 -0.614874,0.61487 -1.226846,0.43748 -1.643206,-0.47633 -0.214437,-0.47064 -1.066992,-1.19868 -1.895987,-1.61909 -0.828488,-0.42014 -1.800381,-1.08927 -2.159763,-1.48695 -0.652549,-0.72208 -0.652388,-0.72382 0.120521,-1.30683 l 0.773943,-0.58378 -0.871326,-0.963 c -0.47923,-0.52964 -1.377135,-1.48427 -1.9953447,-2.12139 -0.618211,-0.63712 -1.436526,-1.7892 -1.818478,-2.56018 -0.798653,-1.61211 -1.659228,-2.26109 -3.426707,-2.58414 -1.091601,-0.19952 -1.180305,-0.28071 -0.694665,-0.63582 0.472712,-0.34565 0.499233,-0.57202 0.175739,-1.5 -0.209544,-0.60109 -0.38099,-1.37849 -0.38099,-1.72754 0,-0.34905 -0.390019,-1.14598 -0.86671,-1.77095 -0.815172,-1.06874 -0.827307,-1.13632 -0.204087,-1.13632 0.407386,0 0.739495,-0.28684 0.862191,-0.74468 0.367464,-1.37119 0.246077,-1.57211 -0.949792,-1.57211 -1.099524,0 -1.59158596,-0.46239 -0.779967,-0.73293 0.283618,-0.0945 0.283838,-0.30289 8.78e-4,-0.83161 -0.286095,-0.53457 -0.277549,-1.0094 0.03528,-1.96016 0.515417,-1.56647 1.78892,-2.32657 6.593915,-3.93565 3.4807567,-1.16561 4.6474717,-1.87431 4.0484437,-2.45914 -0.165218,-0.1613 -1.119176,-0.61415 -2.119909,-1.00634 -2.8264787,-1.1077 -3.2853137,-1.77431 -1.9866517,-2.88626 0.79195,-0.67809 0.894522,-2.77934 0.200596,-4.10931 -0.396992,-0.76087 -0.389189,-0.94448 0.0592,-1.39287 0.284058,-0.28406 1.198196,-1.90032 2.0314187,-3.59171 1.393766,-2.82924 1.62085,-3.11093 2.838833,-3.52142 2.747124,-0.92584 17.165174,-1.80605 38.558113,-2.35393 7.008309,-0.17949 15.013668,-0.41446 17.789687,-0.52217 l 5.047306,-0.19584 v 9.78511 9.7851 h 32.104178 32.10418 v -10.70599 -10.70598 l 3.72342,-0.24047 c 5.67129,-0.36628 34.33561,-0.54752 47.8253,-0.3024 l 11.9977,0.218 v 10.86842 10.86842 h 32.10418 32.10418 v -9.96894 -9.96893 l 4.21988,0.22222 c 13.59289,0.71583 28.0646,1.62927 37.48245,2.36585 5.91611,0.4627 13.51839,0.96149 16.89396,1.10842 7.05139,0.30692 7.43588,0.42935 9.66302,3.0768 2.90625,3.45477 4.29818,5.86054 5.04115,8.713 0.64016,2.45778 0.19246,3.57047 -2.09905,5.21676 -1.84172,1.32313 -2.03418,1.90428 -1.14427,3.45488 0.77239,1.34579 0.4016,2.01373 -1.2659,2.28037 l -1.39994,0.22386 1.1113,0.92776 1.11131,0.92775 -0.89704,0.34105 c -0.49337,0.18758 -1.25524,0.43095 -1.69301,0.54083 -0.67756,0.17006 -0.81081,0.42899 -0.89557,1.74024 l -0.0996,1.54046 -1.82034,0.0858 c -2.95517,0.13928 -3.30971,0.28975 -3.30971,1.40466 0,0.60348 -0.35119,1.37442 -0.912,2.00209 -0.81894,0.91654 -1.00689,0.98462 -1.84189,0.66716 -1.18965,-0.45231 -2.87262,-0.45672 -2.87262,-0.008 0,0.19031 0.36557,0.71159 0.81239,1.1584 0.61206,0.61207 0.68459,0.81238 0.29413,0.81238 -0.41847,0 -0.47465,0.23894 -0.29178,1.24114 0.29609,1.62274 0.57316,1.85087 3.3224,2.73555 2.85801,0.91968 3.08757,1.04847 2.33767,1.31152 -0.91583,0.32126 5.76893,3.97898 7.27187,3.97898 1.23664,0 1.5685,0.61369 0.48507,0.89701 -0.36407,0.0952 -0.66194,0.28159 -0.66194,0.41418 0,0.37926 1.16594,1.33658 1.62785,1.33658 0.22956,0 0.69692,0.3351 1.03858,0.74468 0.68207,0.81756 0.88247,1.61273 0.24611,0.97636 -0.23029,-0.23027 -1.33381,-0.39716 -2.62622,-0.39716 -1.22598,0 -2.5863,-0.13582 -3.02292,-0.30183 -1.25041,-0.4754 -1.75401,0.0382 -1.06642,1.08762 0.45293,0.69126 0.83252,0.86906 1.85525,0.86906 1.30933,0 1.41573,0.12892 1.2986,1.57335 -0.0349,0.43083 0.17105,0.83476 0.48759,0.95623 0.43764,0.16794 0.45912,0.26668 0.10657,0.49015 -0.84153,0.53346 -2.14231,0.29435 -2.92373,-0.53744 -0.7839,-0.83444 -1.78955,-1.04678 -2.58069,-0.54492 -0.3413,0.2165 -0.3204,0.36282 0.10186,0.71327 0.29219,0.24249 0.74406,0.95022 1.00416,1.57273 0.2601,0.6225 0.76785,1.20895 1.12831,1.30322 0.72648,0.18998 1.12566,1.06382 0.83362,1.82488 -0.10433,0.27188 -0.93159,0.84182 -1.83836,1.26653 -1.95073,0.91367 -2.61706,1.56613 -1.99319,1.9517 0.26285,0.16245 -0.0982,0.3419 -0.96753,0.48091 -1.15488,0.18468 -1.35912,0.32771 -1.22117,0.85522 0.38121,1.45777 -2.73937,2.71434 -6.00536,2.41819 -1.17782,-0.1068 -2.19454,-0.0414 -2.43926,0.15693 -0.2875,0.23298 -1.01911,0.22981 -2.32352,-0.0101 -1.50741,-0.27719 -2.0812,-0.25523 -2.7552,0.10549 -0.80381,0.43018 -0.8177,0.48016 -0.24902,0.89598 0.39222,0.2868 0.47821,0.52241 0.24655,0.67555 -0.19565,0.12934 -0.34386,0.68197 -0.32936,1.22807 l 0.0264,0.99292 -1.9326,-0.0884 c -1.69937,-0.0777 -1.95366,-0.008 -2.10717,0.5792 -0.096,0.36716 -0.31695,0.66757 -0.49096,0.66757 -0.17402,0 -0.008,0.39242 0.36957,0.87206 0.37728,0.47963 0.68596,1.07538 0.68596,1.32388 0,0.2485 0.14894,0.45182 0.33097,0.45182 0.18204,0 0.33098,0.22341 0.33098,0.49646 0,0.27305 0.22842,0.49646 0.50762,0.49646 0.27918,0 0.80733,0.50797 1.17364,1.12884 0.36632,0.62086 0.89202,1.21556 1.16822,1.32154 0.2762,0.10599 0.40948,0.3427 0.29619,0.52602 -0.11353,0.18368 0.10863,0.3333 0.49488,0.3333 0.67317,0 0.65852,0.0795 -0.37078,2.01065 -1.14751,2.15295 -2.7741,3.72217 -4.51092,4.3518 -0.85962,0.31163 -1.07565,0.57345 -1.07565,1.30362 0,0.77773 -0.18466,0.96171 -1.24114,1.23662 -1.98696,0.51703 -6.90278,0.66344 -10.8393,0.32284 z m -19.03082,-19.48562 c -0.27306,-0.17646 -2.58158,-0.29537 -5.13005,-0.26424 -4.27755,0.0522 -4.41742,0.0726 -1.82034,0.26424 4.81621,0.35549 7.50047,0.35549 6.95039,0 z"
     id="path842" />
  <path
     style="fill:#34b233;fill-opacity:1;stroke:#c8b7b7;stroke-width:0.330971"
     d="M 75.115486,86.71187 V 1.9833142 h 95.650594 95.6506 V 86.71187 171.44043 H 234.64347 202.87026 V 118.81605 66.191673 H 170.76608 138.6619 v 52.624377 52.62438 H 106.88869 75.115486 Z"
     id="path844" />
</svg>
